<?xml version="1.0"?>
<svg width="495" height="195" xmlns="http://www.w3.org/2000/svg" xmlns:svg="http://www.w3.org/2000/svg">
 <style>.header {
            font: 600 18px &#x27;Segoe UI&#x27;, Ubuntu, Sans-Serif;
            fill: #2f80ed;
            animation: fadeInAnimation 0.8s ease-in-out forwards;
          }
          
    .stat {
      font: 600 14px &#x27;Segoe UI&#x27;, Ubuntu, &quot;Helvetica Neue&quot;, Sans-Serif; fill: #333;
    }
    .stagger {
      opacity: 0;
      animation: fadeInAnimation 0.3s ease-in-out forwards;
    }
    .rank-text {
      font: 800 24px &#x27;Segoe UI&#x27;, Ubuntu, Sans-Serif; fill: #333; 
      animation: scaleInAnimation 0.3s ease-in-out forwards;
    }
    
    .bold { font-weight: 700 }
    .icon {
      fill: #4c71f2;
      display: block;
    }
    
    .rank-circle-rim {
      stroke: #2f80ed;
      fill: none;
      stroke-width: 6;
      opacity: 0.2;
    }
    .rank-circle {
      stroke: #2f80ed;
      stroke-dasharray: 250;
      fill: none;
      stroke-width: 6;
      stroke-linecap: round;
      opacity: 0.8;
      transform-origin: -10px 8px;
      transform: rotate(-90deg);
      animation: rankAnimation 1s forwards ease-in-out;
    }
    
    @keyframes rankAnimation {
      from {
        stroke-dashoffset: 251.32741228718345;
      }
      to {
        stroke-dashoffset: 125.5763385311703;
      }
    }
  
  

          
    /* Animations */
    @keyframes scaleInAnimation {
      from {
        transform: translate(-5px, 5px) scale(0);
      }
      to {
        transform: translate(-5px, 5px) scale(1);
      }
    }
    @keyframes fadeInAnimation {
      from {
        opacity: 0;
      }
      to {
        opacity: 1;
      }
    }</style>undefined
 <g class="layer">
  <title>Layer 1</title>
  <rect data-testid="card-bg" fill="#fffefe" height="99%" id="svg_7" rx="4.5" stroke="#E4E2E2" width="494" x="0.5" y="0.5"/>
  <g data-testid="card-title" id="svg_8">
   <g id="svg_9">
    <text class="header" data-testid="header" id="svg_10" style="cursor: move;" x="25" y="35">Happy Wolf&#x27;s GitHub Stats</text>
   </g>
  </g>
  <g data-testid="main-card-body" id="svg_11" transform="translate(0, 55)">
   <g data-testid="rank-circle" id="svg_12" transform="translate(400, 47.5)">
    <circle class="rank-circle-rim" cx="-10" cy="8" id="svg_13" r="40"/>
    <circle class="rank-circle" cx="-10" cy="8" id="svg_14" r="40"/>
    <g class="rank-text" id="svg_15">
     <text id="svg_16" text-anchor="middle" x="0" y="0">A+</text>
    </g>
   </g>
   <g id="svg_1">
    <svg id="svg_17" x="0" y="0">
     <g id="svg_18" transform="translate(0, 0)">
      <g class="stagger" id="svg_19" transform="translate(25, 0)">
       <g id="svg_2">
        <svg class="icon" data-testid="icon" height="16" id="svg_20" version="1.1" viewBox="0 0 16 16" width="16">
         <path d="m8,0.25a0.75,0.75 0 0 1 0.67,0.42l1.88,3.81l4.22,0.61a0.75,0.75 0 0 1 0.41,1.28l-3.04,2.97l0.71,4.2a0.75,0.75 0 0 1 -1.08,0.79l-3.77,-1.98l-3.77,1.98a0.75,0.75 0 0 1 -1.08,-0.79l0.72,-4.2l-3.05,-2.97a0.75,0.75 0 0 1 0.41,-1.28l4.21,-0.61l1.89,-3.81a0.75,0.75 0 0 1 0.67,-0.42zm0,2.44l-1.38,2.81a0.75,0.75 0 0 1 -0.57,0.41l-3.1,0.45l2.24,2.18a0.75,0.75 0 0 1 0.22,0.67l-0.53,3.08l2.77,-1.45a0.75,0.75 0 0 1 0.7,0l2.77,1.45l-0.53,-3.08a0.75,0.75 0 0 1 0.22,-0.67l2.24,-2.18l-3.1,-0.45a0.75,0.75 0 0 1 -0.56,-0.41l-1.39,-2.81l0,0z" fill-rule="evenodd" id="svg_21"/>
        </svg>
       </g>
       <text class="stat bold" id="svg_22" x="25" y="12.5">Total Stars:</text>
       <text class="stat" data-testid="stars" id="svg_23" x="200" y="12.5">7</text>
      </g>
     </g>
     <g id="svg_24" transform="translate(0, 25)">
      <g class="stagger" id="svg_25" transform="translate(25, 0)">
       <g id="svg_3">
        <svg class="icon" data-testid="icon" height="16" id="svg_26" version="1.1" viewBox="0 0 16 16" width="16">
         <path d="m1.64,3.14l-1.21,-1.21a0.25,0.25 0 0 0 -0.43,0.17l0,3.65c0,0.14 0.11,0.25 0.25,0.25l3.65,0a0.25,0.25 0 0 0 0.17,-0.43l-1.36,-1.36a6.5,6.5 0 1 1 -1.18,4.46a0.75,0.75 0 1 0 -1.49,0.16a8,8 0 1 0 1.6,-5.69zm6.11,0.86a0.75,0.75 0 0 1 0.75,0.75l0,2.99l2.03,0.81a0.75,0.75 0 0 1 -0.56,1.4l-2.5,-1a0.75,0.75 0 0 1 -0.47,-0.7l0,-3.5a0.75,0.75 0 0 1 0.75,-0.75z" fill-rule="evenodd" id="svg_27"/>
        </svg>
       </g>
       <text class="stat bold" id="svg_28" x="25" y="12.5">Total Commits (2024):</text>
       <text class="stat" data-testid="commits" id="svg_29" x="200" y="12.5">228</text>
      </g>
     </g>
     <g id="svg_30" transform="translate(0, 50)">
      <g class="stagger" id="svg_31" transform="translate(25, 0)">
       <g id="svg_4">
        <svg class="icon" data-testid="icon" height="16" id="svg_32" version="1.1" viewBox="0 0 16 16" width="16">
         <path d="m7.18,3.07l2.39,-2.39a0.25,0.25 0 0 1 0.43,0.17l0,4.8a0.25,0.25 0 0 1 -0.43,0.17l-2.39,-2.39a0.25,0.25 0 0 1 0,-0.36zm-3.43,-0.57a0.75,0.75 0 1 0 0,1.5a0.75,0.75 0 0 0 0,-1.5zm-2.25,0.75a2.25,2.25 0 1 1 3,2.12l0,5.26a2.25,2.25 0 1 1 -1.5,0l0,-5.26a2.25,2.25 0 0 1 -1.5,-2.12zm9.5,-0.75l-1,0l0,1.5l1,0a1,1 0 0 1 1,1l0,5.63a2.25,2.25 0 1 0 1.5,0l0,-5.63a2.5,2.5 0 0 0 -2.5,-2.5zm1,10.25a0.75,0.75 0 1 1 1.5,0a0.75,0.75 0 0 1 -1.5,0zm-8.25,-0.75a0.75,0.75 0 1 0 0,1.5a0.75,0.75 0 0 0 0,-1.5z" fill-rule="evenodd" id="svg_33"/>
        </svg>
       </g>
       <text class="stat bold" id="svg_34" x="25" y="12.5">Total PRs:</text>
       <text class="stat" data-testid="prs" id="svg_35" x="200" y="12.5">16</text>
      </g>
     </g>
     <g id="svg_36" transform="translate(0, 75)">
      <g class="stagger" id="svg_37" transform="translate(25, 0)">
       <g id="svg_5">
        <svg class="icon" data-testid="icon" height="16" id="svg_38" version="1.1" viewBox="0 0 16 16" width="16">
         <path d="m8,1.5a6.5,6.5 0 1 0 0,13a6.5,6.5 0 0 0 0,-13zm-8,6.5a8,8 0 1 1 16,0a8,8 0 0 1 -16,0zm9,3a1,1 0 1 1 -2,0a1,1 0 0 1 2,0zm-0.25,-6.25a0.75,0.75 0 0 0 -1.5,0l0,3.5a0.75,0.75 0 0 0 1.5,0l0,-3.5z" fill-rule="evenodd" id="svg_39"/>
        </svg>
       </g>
       <text class="stat bold" id="svg_40" x="25" y="12.5">Total Issues:</text>
       <text class="stat" data-testid="issues" id="svg_41" x="200" y="12.5">6</text>
      </g>
     </g>
     <g id="svg_42" transform="translate(0, 100)">
      <g class="stagger" id="svg_43" transform="translate(25, 0)">
       <g id="svg_6">
        <svg class="icon" data-testid="icon" height="16" id="svg_44" version="1.1" viewBox="0 0 16 16" width="16">
         <path d="m2,2.5a2.5,2.5 0 0 1 2.5,-2.5l8.75,0a0.75,0.75 0 0 1 0.75,0.75l0,12.5a0.75,0.75 0 0 1 -0.75,0.75l-2.5,0a0.75,0.75 0 1 1 0,-1.5l1.75,0l0,-2l-8,0a1,1 0 0 0 -0.71,1.7a0.75,0.75 0 0 1 -1.08,1.05a2.5,2.5 0 0 1 -0.71,-1.75l0,-9zm10.5,-1l0,7.5l-8,0c-0.36,0 -0.69,0.07 -1,0.21l0,-6.71a1,1 0 0 1 1,-1l8,0zm-7.5,10.75l0,3.25a0.25,0.25 0 0 0 0.4,0.2l1.45,-1.09a0.25,0.25 0 0 1 0.3,0l1.45,1.09a0.25,0.25 0 0 0 0.4,-0.2l0,-3.25a0.25,0.25 0 0 0 -0.25,-0.25l-3.5,0a0.25,0.25 0 0 0 -0.25,0.25z" fill-rule="evenodd" id="svg_45"/>
        </svg>
       </g>
       <text class="stat bold" id="svg_46" x="25" y="12.5">Contributed to:</text>
       <text class="stat" data-testid="contribs" id="svg_47" x="200" y="12.5">3</text>
      </g>
     </g>
    </svg>
   </g>
  </g>
 </g></svg>